<svg xmlns="http://www.w3.org/2000/svg" xmlns:xlink="http://www.w3.org/1999/xlink" width="1000" zoomAndPan="magnify" viewBox="0 0 750 749.999995" height="1000" preserveAspectRatio="xMidYMid meet" version="1.0"><defs><clipPath id="9ca7cd7f77"><path d="M 75 225 L 120.097656 225 L 120.097656 675 L 75 675 Z M 75 225 " clip-rule="nonzero"/></clipPath><clipPath id="c8755afedd"><path d="M 629.898438 75 L 674.996094 75 L 674.996094 525 L 629.898438 525 Z M 629.898438 75 " clip-rule="nonzero"/></clipPath></defs><path fill="#000000" d="M 300 344.847656 C 358.023438 344.847656 405.152344 391.976562 405.152344 450 L 450 450 C 450 367.144531 382.855469 300 300 300 Z M 300 344.847656 " fill-opacity="1" fill-rule="nonzero"/><path fill="#000000" d="M 330.152344 225 C 330.152344 283.023438 283.023438 330.152344 225 330.152344 L 225 375 C 307.855469 375 375 307.855469 375 225 Z M 330.152344 225 " fill-opacity="1" fill-rule="nonzero"/><g clip-path="url(#9ca7cd7f77)"><path fill="#000000" d="M 75 225 L 120.097656 225 L 120.097656 675 L 75 675 Z M 75 225 " fill-opacity="1" fill-rule="nonzero"/></g><path fill="#000000" d="M 225 119.847656 C 283.023438 119.847656 330.152344 166.976562 330.152344 225 L 375 225 C 375 142.144531 307.855469 75 225 75 Z M 225 119.847656 " fill-opacity="1" fill-rule="nonzero"/><path fill="#000000" d="M 119.847656 225 C 119.847656 166.976562 166.976562 119.847656 225 119.847656 L 225 75 C 142.144531 75 75 142.144531 75 225 Z M 119.847656 225 " fill-opacity="1" fill-rule="nonzero"/><path fill="#000000" d="M 225 330.152344 C 166.976562 330.152344 119.847656 283.023438 119.847656 225 L 75 225 C 75 307.855469 142.144531 375 225 375 Z M 225 330.152344 " fill-opacity="1" fill-rule="nonzero"/><path fill="#000000" d="M 419.847656 525 C 419.847656 466.976562 466.976562 419.847656 525 419.847656 L 525 375 C 442.144531 375 375 442.144531 375 525 Z M 419.847656 525 " fill-opacity="1" fill-rule="nonzero"/><g clip-path="url(#c8755afedd)"><path fill="#000000" d="M 674.996094 525 L 629.898438 525 L 629.898438 75 L 674.996094 75 Z M 674.996094 525 " fill-opacity="1" fill-rule="nonzero"/></g><path fill="#000000" d="M 525 630.152344 C 466.976562 630.152344 419.847656 583.023438 419.847656 525 L 375 525 C 375 607.855469 442.144531 675 525 675 Z M 525 630.152344 " fill-opacity="1" fill-rule="nonzero"/><path fill="#000000" d="M 630.152344 525 C 630.152344 583.023438 583.023438 630.152344 525 630.152344 L 525 675 C 607.855469 675 675 607.855469 675 525 Z M 630.152344 525 " fill-opacity="1" fill-rule="nonzero"/><path fill="#000000" d="M 525 419.847656 C 583.023438 419.847656 630.152344 466.976562 630.152344 525 L 675 525 C 675 442.144531 607.855469 375 525 375 Z M 525 419.847656 " fill-opacity="1" fill-rule="nonzero"/></svg>